<?xml version="1.0" standalone="no"?>
<!DOCTYPE svg PUBLIC "-//W3C//DTD SVG 20010904//EN"
 "http://www.w3.org/TR/2001/REC-SVG-20010904/DTD/svg10.dtd">
<svg version="1.0" xmlns="http://www.w3.org/2000/svg"
 width="300.000000pt" height="400.000000pt" viewBox="0 0 300.000000 400.000000"
 preserveAspectRatio="xMidYMid meet">
<metadata>
Created by potrace 1.10, written by Peter Selinger 2001-2011
</metadata>
<g transform="translate(0.000000,400.000000) scale(0.100000,-0.100000)"
fill="#000000" stroke="none">
<path d="M559 3984 c6 -12 7 -25 3 -29 -4 -5 0 -6 10 -2 11 4 18 -1 22 -19 10
-37 1 -43 -59 -37 -52 5 -55 5 -64 -21 -6 -14 -18 -26 -27 -26 -14 0 -16 8
-12 45 6 48 3 51 -67 48 -19 -1 -89 12 -130 23 -18 5 -18 4 -5 -8 18 -18 93
-48 120 -48 24 0 61 -36 78 -74 11 -25 15 -26 30 -15 9 8 20 19 25 26 4 7 14
10 22 7 8 -4 15 -1 15 5 0 6 7 11 16 11 11 0 15 -6 12 -18 -4 -15 0 -18 23
-17 22 1 30 -4 40 -27 6 -15 15 -28 20 -28 5 0 8 -3 8 -7 -1 -5 -1 -15 0 -23
1 -13 2 -13 11 0 7 12 16 7 44 -25 19 -22 35 -34 36 -27 0 6 -9 21 -20 32 -28
28 -25 40 9 40 16 0 73 9 127 20 137 29 1074 183 1229 203 20 3 15 4 -17 6
-26 0 -108 -8 -183 -19 -208 -30 -1061 -170 -1135 -185 -62 -13 -66 -13 -87 7
-13 12 -23 30 -23 40 0 11 -7 18 -20 18 -13 0 -18 5 -14 15 4 8 10 12 15 9 10
-6 12 39 3 85 -7 32 -34 44 -34 14 0 -15 -2 -14 -16 3 -15 18 -15 18 -5 -2z"/>
<path d="M2592 3873 c1 -98 3 -116 9 -78 4 29 5 -10 3 -95 -12 -447 -12 -503
-4 -455 4 28 9 115 11 195 3 175 15 -284 18 -692 2 -159 6 -260 12 -264 7 -4
8 15 5 53 -5 58 -21 959 -21 1211 0 72 -3 132 -7 132 -5 0 -8 15 -8 34 0 34 1
35 70 57 39 12 69 24 67 26 -2 2 -33 -3 -68 -12 -80 -18 -82 -18 -75 0 3 8 1
15 -4 15 -6 0 -9 -51 -8 -127z"/>
<path d="M120 3971 c0 -5 16 -15 35 -21 21 -7 32 -16 29 -22 -4 -7 -2 -8 5 -4
6 4 19 2 27 -5 8 -6 17 -9 20 -6 6 5 -94 67 -108 67 -5 0 -8 -4 -8 -9z"/>
<path d="M2643 3864 c-7 -12 -10 -24 -6 -27 11 -12 13 -63 18 -457 9 -717 14
-873 25 -884 8 -8 11 7 11 54 0 36 1 144 3 240 2 175 2 175 -4 30 -6 -144 -6
-144 -7 65 0 130 3 199 8 180 7 -26 8 -25 4 10 -3 22 -5 155 -5 295 0 165 -4
250 -10 240 -6 -10 -7 16 -3 74 5 75 4 88 -8 81 -11 -7 -11 -5 1 10 8 10 10
16 3 12 -9 -5 -13 8 -15 45 -3 47 -4 51 -15 32z m34 -381 c-2 -21 -4 -4 -4 37
0 41 2 58 4 38 2 -21 2 -55 0 -75z"/>
<path d="M2895 3854 c-64 -18 -173 -24 -178 -10 -2 6 -2 0 0 -12 2 -13 0 -21
-5 -18 -5 3 -9 -1 -9 -10 0 -8 7 -12 16 -10 9 3 76 19 149 36 72 18 132 34
132 36 0 8 -56 2 -105 -12z"/>
<path d="M65 3840 c-4 -6 -11 -8 -16 -5 -20 13 -8 -13 16 -33 32 -28 32 -28
27 8 -5 33 -17 46 -27 30z"/>
<path d="M126 3787 c-6 -35 9 -87 26 -87 10 0 9 8 -1 35 -5 11 -5 25 -1 30 5
6 3 21 -4 34 -13 24 -13 24 -20 -12z"/>
<path d="M2358 3795 c3 -18 0 -25 -12 -25 -9 0 -16 8 -16 21 0 11 -4 18 -10
14 -5 -3 -6 -15 -1 -28 7 -19 4 -24 -23 -35 -31 -12 -14 -11 41 4 17 5 22 1
26 -18 3 -17 5 -14 6 11 0 19 4 31 7 28 4 -3 15 -2 25 4 14 7 19 6 19 -4 0
-10 8 -13 28 -9 l27 5 -27 9 c-16 6 -28 16 -28 23 0 8 -5 17 -11 20 -6 4 -9 0
-7 -11 2 -11 -4 -20 -14 -22 -11 -2 -18 3 -18 12 0 8 -4 17 -9 20 -4 3 -6 -6
-3 -19z"/>
<path d="M2450 3803 c0 -14 6 -23 15 -23 8 0 15 -5 15 -11 0 -25 24 0 26 27 1
16 0 21 -3 12 -2 -10 -9 -18 -15 -18 -6 0 -17 8 -24 18 -12 16 -13 15 -14 -5z"/>
<path d="M545 3735 c-14 -32 -24 -65 -22 -74 4 -17 4 -17 42 77 28 65 9 63
-20 -3z"/>
<path d="M2867 3780 c-15 -5 -42 -11 -60 -13 -50 -7 -67 -17 -67 -39 0 -17 5
-19 33 -13 82 15 118 28 113 41 -3 8 2 11 13 9 10 -2 18 3 18 11 0 16 -9 16
-50 4z m-37 -29 c0 -9 -33 -21 -57 -21 -22 0 -14 18 10 23 39 8 47 7 47 -2z"/>
<path d="M479 3764 c-10 -13 -10 -17 1 -24 9 -6 18 -3 26 8 22 30 -3 45 -27
16z"/>
<path d="M2967 3763 c-4 -3 -7 -14 -7 -24 0 -13 6 -16 22 -11 20 5 21 6 3 12
-19 7 -19 7 0 18 16 9 17 11 4 12 -9 0 -19 -3 -22 -7z"/>
<path d="M400 3744 c0 -4 14 -23 32 -41 24 -25 32 -41 31 -68 -1 -19 4 -39 11
-44 9 -7 12 1 14 34 1 26 -4 48 -11 52 -6 4 -17 17 -23 27 -11 22 -54 53 -54
40z"/>
<path d="M2445 3730 c-25 -7 -21 -8 18 -5 26 1 50 5 54 9 8 8 -34 6 -72 -4z"/>
<path d="M2843 3711 c-35 -8 -63 -18 -63 -23 0 -5 4 -7 8 -4 5 3 19 7 33 10
13 2 36 7 52 11 15 4 27 3 27 -2 0 -5 -23 -15 -51 -21 -67 -16 -90 -15 -83 1
3 8 -2 14 -11 14 -12 0 -15 -6 -10 -25 3 -13 6 -125 6 -248 0 -190 2 -224 14
-224 12 0 15 15 15 64 l0 63 60 10 c34 5 63 6 66 2 5 -9 -84 -29 -103 -22 -8
3 -13 -2 -13 -16 0 -17 6 -21 36 -21 21 0 33 -4 29 -10 -3 -5 -1 -10 4 -10 28
0 6 -18 -31 -26 -40 -9 -38 -10 34 -10 58 -1 75 2 71 12 -2 7 -11 10 -18 8
-16 -7 -29 12 -15 21 6 4 8 11 4 16 -3 5 -2 9 3 8 21 -4 44 2 39 9 -3 5 -27 5
-53 1 -68 -11 -93 -11 -93 2 0 5 4 8 8 5 12 -7 146 25 135 33 -5 3 -10 26 -12
51 -3 53 -11 68 -11 21 0 -23 -4 -30 -12 -25 -9 5 -9 2 1 -9 7 -9 12 -17 10
-18 -20 -4 -42 -7 -86 -13 l-53 -7 1 53 c1 29 3 45 6 35 4 -14 11 -17 34 -12
18 4 29 3 29 -4 0 -6 -13 -11 -30 -11 -16 0 -30 -4 -30 -8 0 -5 14 -7 30 -4
17 2 30 0 30 -6 0 -6 -12 -13 -27 -15 -16 -2 -8 -3 16 -1 50 5 62 11 41 24
-11 7 -12 13 -2 35 16 35 16 35 -20 34 -24 -1 -27 -3 -10 -6 33 -7 27 -20 -13
-25 -34 -4 -48 5 -22 15 10 4 10 6 0 6 -22 2 -14 19 10 24 l22 4 -22 2 c-45 2
-23 51 23 51 25 0 15 -19 -13 -23 l-28 -4 28 -2 c16 0 25 -5 22 -11 -3 -5 3
-10 14 -10 14 0 19 5 14 15 -3 9 3 25 12 35 21 23 15 24 -52 11 -63 -12 -52 6
12 20 44 10 53 15 44 25 -7 8 -8 25 -4 41 4 16 9 39 12 53 2 13 8 29 13 36 13
14 0 13 -77 -5z m47 -41 c0 -5 -4 -10 -10 -10 -5 0 -7 -7 -4 -15 4 -10 0 -15
-12 -16 -17 -1 -17 -2 -1 -6 9 -2 17 -9 17 -14 0 -5 -8 -9 -17 -9 -10 0 -28
-3 -40 -6 -14 -4 -23 -2 -23 5 0 6 10 11 23 12 21 1 21 1 -3 8 l-25 7 30 12
c29 11 29 12 -12 7 -24 -2 -43 -1 -43 4 0 7 38 17 113 30 4 0 7 -3 7 -9z m-30
-90 c0 -5 -3 -10 -7 -10 -5 0 -18 -3 -30 -6 -13 -4 -23 -2 -23 4 0 9 9 13 53
21 4 0 7 -3 7 -9z"/>
<path d="M2259 3706 c-2 -2 -29 -7 -59 -11 -30 -4 -57 -9 -60 -12 -4 -5 76 2
132 10 26 4 34 17 11 17 -11 0 -22 -2 -24 -4z"/>
<path d="M1778 3686 c-55 -11 -56 -12 -41 -31 13 -16 15 -17 10 -2 -4 11 -1
17 7 17 8 0 13 -8 11 -17 -1 -10 0 -12 2 -5 3 8 11 11 19 8 8 -3 14 -1 14 5 0
6 7 8 16 5 8 -3 12 -2 9 4 -3 5 9 7 29 3 18 -3 36 -1 40 5 4 6 -3 8 -16 5 -19
-4 -20 -3 -8 6 12 9 10 11 -10 10 -14 -1 -51 -6 -82 -13z"/>
<path d="M1249 3685 c-3 -2 -59 -12 -125 -20 -65 -8 -141 -20 -169 -25 -27 -6
-62 -11 -77 -12 -16 -1 -28 -6 -28 -10 0 -8 30 -5 150 16 87 15 255 40 277 41
24 1 25 15 1 15 -13 0 -27 -2 -29 -5z"/>
<path d="M935 3670 c-22 -4 -44 -5 -50 -2 -7 3 -7 1 0 -6 7 -7 29 -7 75 3 36
7 54 13 40 13 -14 0 -43 -4 -65 -8z"/>
<path d="M1990 3673 c0 -6 -44 -16 -100 -23 -55 -7 -98 -15 -96 -19 5 -8 105
-4 126 6 8 3 26 8 40 10 29 5 47 19 37 30 -4 3 -7 2 -7 -4z"/>
<path d="M720 3657 c0 -7 10 -17 22 -22 28 -13 34 -32 11 -38 -15 -4 -14 -5 4
-6 12 0 25 -7 30 -13 15 -25 30 -75 28 -102 0 -14 3 -26 7 -26 4 0 8 -7 8 -16
0 -8 -4 -12 -10 -9 -6 3 -7 -1 -4 -10 4 -10 -4 -27 -21 -45 -14 -15 -23 -30
-18 -33 5 -3 23 9 41 28 23 23 29 35 20 39 -10 5 -10 7 0 12 6 3 9 11 6 16 -4
6 2 18 12 26 18 14 18 14 0 8 -15 -5 -17 -2 -13 14 3 11 2 20 -1 20 -4 0 -8
10 -8 23 -2 29 -73 132 -90 131 -8 -1 -11 2 -8 7 3 5 0 9 -5 9 -6 0 -11 -6
-11 -13z"/>
<path d="M2541 3655 c-6 -46 1 -349 9 -369 6 -14 8 10 8 69 -1 108 -13 328
-17 300z"/>
<path d="M2023 3610 c-3 -11 -13 -21 -22 -22 -9 0 -20 -2 -26 -3 -5 -2 -14 -4
-20 -5 -5 -1 -14 -3 -20 -5 -5 -1 -22 -3 -37 -3 -22 -2 -28 -7 -27 -24 1 -17
2 -19 6 -5 3 10 14 17 29 17 13 0 25 0 27 1 1 1 35 7 75 14 51 8 72 9 69 1 -4
-12 -50 -23 -126 -30 -29 -3 -56 -7 -59 -10 -11 -12 5 -15 41 -7 22 6 37 5 37
0 0 -11 -14 -17 -47 -22 -12 -2 -26 -7 -30 -11 -5 -5 10 -6 32 -3 22 4 51 7
65 8 24 1 24 1 3 7 -36 11 -12 31 43 36 27 3 49 5 49 6 0 2 38 10 63 12 12 1
22 6 22 10 0 5 -18 5 -40 2 -51 -8 -53 9 -2 23 l37 11 -45 -3 c-25 -3 -55 -7
-67 -11 -17 -5 -23 -2 -23 10 0 10 5 14 10 11 6 -3 10 -1 10 4 0 19 -22 12
-27 -9z"/>
<path d="M2245 3623 c-54 -6 -75 -13 -75 -24 0 -6 5 -7 11 -3 6 3 30 8 54 9
24 2 52 8 62 14 17 10 17 10 -2 9 -11 0 -33 -3 -50 -5z"/>
<path d="M1927 3613 c-3 -2 -17 -6 -33 -9 -53 -10 -38 -14 27 -8 76 7 106 20
50 21 -22 0 -42 -1 -44 -4z"/>
<path d="M370 3593 c-11 -12 -13 -27 -9 -43 6 -21 7 -22 8 -4 1 11 6 25 12 31
6 6 10 16 8 22 -3 7 -10 4 -19 -6z"/>
<path d="M2310 3596 c0 -11 -9 -16 -30 -16 -22 0 -30 -5 -30 -17 0 -13 3 -14
12 -5 7 7 20 12 29 12 22 0 44 26 29 35 -5 3 -10 -1 -10 -9z"/>
<path d="M496 3554 c-5 -20 -10 -23 -20 -14 -11 8 -15 8 -19 -2 -4 -10 -6 -10
-6 0 -1 6 -5 12 -11 12 -6 0 -7 -19 -4 -47 3 -27 5 -61 5 -76 -2 -36 21 -32
24 4 1 13 5 31 9 40 4 10 0 23 -10 34 -17 17 -17 17 3 11 25 -8 53 16 53 45 0
28 -17 23 -24 -7z"/>
<path d="M1167 3573 c-19 -18 -5 -33 31 -32 28 0 32 2 17 8 -11 5 -26 6 -32 4
-7 -3 -13 0 -13 5 0 6 12 13 28 15 l27 4 -26 2 c-14 0 -29 -2 -32 -6z"/>
<path d="M2110 3530 c0 -5 -13 -10 -29 -10 -24 0 -28 -4 -24 -19 4 -16 10 -17
40 -11 20 5 41 6 49 3 7 -2 21 0 31 6 17 10 17 10 -1 11 -12 0 -16 5 -12 15 3
8 1 15 -4 15 -9 0 -14 -14 -11 -32 0 -4 -6 -5 -14 -1 -12 4 -13 9 -4 19 9 11
8 14 -5 14 -9 0 -16 -4 -16 -10z"/>
<path d="M1035 3521 c-3 -2 -26 -5 -52 -7 -27 -2 -61 -7 -78 -13 -47 -14 77
-3 150 14 49 11 53 13 22 12 -21 -1 -40 -3 -42 -6z"/>
<path d="M2021 3489 c-13 -5 -35 -9 -50 -9 -35 1 -119 -15 -129 -24 -4 -4 6
-4 22 0 26 6 29 5 24 -14 -6 -22 -14 -21 98 -8 20 3 41 9 47 15 5 5 17 7 26 4
10 -3 12 -2 5 4 -7 4 -13 15 -15 24 -3 13 -9 15 -28 8z m13 -23 c-3 -8 -25
-16 -52 -18 -26 -3 -53 -7 -61 -9 -7 -2 -15 1 -18 7 -2 6 20 15 54 21 83 14
83 14 77 -1z"/>
<path d="M2083 3457 c-6 -10 74 -4 84 7 4 4 -12 5 -36 4 -24 -2 -45 -7 -48
-11z"/>
<path d="M351 3413 c-1 -37 23 -46 32 -13 3 13 0 20 -8 20 -7 0 -16 6 -18 13
-3 6 -6 -3 -6 -20z"/>
<path d="M1685 3431 c-16 -4 -25 -9 -20 -12 12 -8 52 -5 60 3 11 10 -9 15 -40
9z"/>
<path d="M1480 3398 c0 -5 -5 -6 -12 -2 -7 4 -8 3 -4 -4 4 -6 12 -9 19 -7 7 2
27 6 45 9 53 7 52 17 -1 15 -26 -2 -47 -7 -47 -11z"/>
<path d="M1353 3388 c-29 -5 -53 -13 -53 -17 0 -7 77 -3 100 6 8 3 19 5 23 4
5 -1 6 3 2 9 -3 5 -9 9 -13 9 -4 -1 -31 -6 -59 -11z"/>
<path d="M1718 3375 c-3 -33 -19 -39 -138 -55 -41 -5 -194 -26 -340 -45 -146
-20 -291 -39 -322 -42 -32 -3 -58 -9 -58 -13 0 -5 16 -7 35 -5 22 2 35 -1 35
-8 0 -8 3 -8 8 1 5 7 35 14 71 16 34 2 65 6 68 10 4 3 16 6 27 6 16 0 22 -7
24 -25 1 -20 -3 -25 -21 -25 -13 0 -29 6 -36 13 -11 10 -11 8 -1 -11 9 -19 17
-23 38 -18 15 4 43 7 63 6 20 0 48 4 63 10 19 7 33 7 47 0 14 -8 25 -7 41 3
31 19 130 36 201 33 31 -1 57 2 57 6 0 5 -6 8 -12 9 -7 0 -3 4 10 9 12 5 22
16 22 23 0 8 7 20 15 27 12 10 18 6 36 -24 23 -40 31 -43 53 -21 22 22 25 19
29 -32 2 -27 4 -2 4 54 0 98 -12 159 -19 98z m-18 -85 c0 -11 -7 -20 -15 -20
-8 0 -15 9 -15 20 0 11 7 20 15 20 8 0 15 -9 15 -20z m-110 -18 c0 -4 -31 -13
-70 -18 -60 -8 -70 -8 -70 6 0 12 15 16 70 18 39 2 70 -1 70 -6z m-190 -21 c0
-10 -9 -21 -19 -24 -24 -6 -31 0 -31 25 0 13 7 18 25 18 18 0 25 -5 25 -19z
m-73 -6 c7 -20 5 -21 -33 -28 -26 -5 -33 -2 -37 13 -4 14 1 20 22 23 14 2 30
5 34 6 4 0 10 -6 14 -14z m-90 -14 c1 -16 -6 -20 -41 -23 -33 -2 -42 0 -43 13
-1 11 7 16 29 17 16 0 33 3 36 6 10 11 18 6 19 -13z"/>
<path d="M1931 3379 c-56 -11 -69 -24 -16 -16 22 4 50 7 63 7 12 0 22 5 22 10
0 11 -7 11 -69 -1z"/>
<path d="M2090 3373 c0 -7 17 -10 45 -10 37 2 45 -1 45 -16 0 -13 -5 -17 -19
-12 -10 3 -31 1 -47 -5 -20 -8 -30 -8 -32 -1 -5 15 -34 14 -57 -3 -25 -17 -55
-17 -55 1 0 7 9 13 19 13 11 0 23 5 26 10 5 7 -3 8 -22 3 -15 -4 -47 -8 -70
-8 -46 0 -48 -2 -33 -25 6 -10 10 -11 10 -2 0 6 9 12 20 12 31 0 24 -18 -10
-25 -16 -4 -32 -10 -35 -15 -3 -4 12 -3 33 2 20 6 52 10 70 9 18 -1 43 6 56
14 21 14 24 14 30 0 4 -12 10 -13 25 -6 18 10 31 6 31 -10 0 -4 -10 -10 -22
-12 -23 -4 -23 -4 0 -6 16 -1 26 6 29 19 3 12 11 19 17 17 6 -2 27 2 48 9 20
7 38 10 41 8 2 -2 10 3 17 11 11 14 10 14 -13 6 -19 -8 -28 -6 -37 5 -7 7 -11
14 -9 15 2 0 12 2 22 4 40 8 23 11 -48 11 -50 -1 -75 -5 -75 -13z"/>
<path d="M446 3349 c-14 -17 -23 -35 -20 -41 3 -5 7 -8 8 -6 16 22 46 78 43
78 -3 0 -17 -14 -31 -31z"/>
<path d="M1220 3360 c0 -12 40 -13 58 -1 8 5 0 8 -23 9 -19 1 -35 -3 -35 -8z"/>
<path d="M1782 3348 c-1 -16 -9 -28 -19 -31 -16 -4 -16 -5 1 -6 13 -1 16 -6
11 -18 -4 -13 -3 -15 5 -7 6 6 10 29 7 50 -2 25 -4 30 -5 12z"/>
<path d="M1833 3311 c-1 -14 3 -17 18 -14 24 7 25 33 1 33 -10 0 -18 -8 -19
-19z"/>
<path d="M736 3260 c4 -19 8 -54 8 -77 0 -27 6 -45 15 -48 11 -4 13 5 7 51 -3
31 -13 68 -22 83 l-15 26 7 -35z"/>
<path d="M2970 3221 c0 -23 -4 -40 -9 -37 -5 4 -12 0 -14 -6 -4 -10 -8 -10
-14 -1 -4 6 -24 10 -43 8 -19 -2 -45 -4 -57 -4 -22 -1 -55 -41 -33 -41 5 0 10
6 10 14 0 15 58 28 66 14 3 -4 -6 -8 -20 -8 -14 0 -27 -4 -30 -8 -3 -5 8 -6
25 -4 17 3 29 0 29 -7 0 -6 -15 -11 -32 -12 -18 0 -27 -3 -20 -6 8 -3 41 1 75
8 34 7 56 14 49 17 -7 2 -10 8 -6 13 10 17 24 9 24 -15 0 -26 -7 -29 -107 -41
-44 -6 -53 -4 -53 9 0 10 -6 13 -15 10 -11 -5 -15 1 -15 20 0 18 -4 24 -14 20
-9 -3 -13 -16 -11 -32 2 -15 4 -123 4 -240 l1 -212 40 6 c27 4 40 3 40 -5 0
-6 -17 -11 -40 -11 -29 0 -40 -4 -40 -15 0 -8 -8 -15 -17 -16 -12 -1 -9 -4 7
-9 l25 -7 -27 -8 c-16 -4 -28 -10 -28 -14 0 -10 44 -9 51 1 3 4 54 13 114 18
60 6 112 13 115 17 3 3 -21 3 -52 0 -62 -5 -72 -2 -35 13 19 8 18 9 -14 9 -27
1 -39 7 -49 26 -8 16 -22 25 -37 25 -16 0 -27 8 -33 25 -15 39 -3 55 44 57 22
0 46 2 51 3 6 2 17 3 25 4 8 1 21 5 29 10 12 8 12 14 -4 38 -10 15 -18 42 -17
58 1 17 -2 37 -7 44 -6 10 -5 22 2 35 6 12 10 33 8 48 -3 35 8 70 20 63 5 -4
9 -1 9 5 0 8 9 10 27 5 16 -4 25 -3 21 1 -4 4 -2 14 5 22 10 12 9 16 -1 20
-10 3 -10 7 -1 18 9 11 9 14 0 14 -12 0 -11 31 1 40 3 3 0 14 -8 24 -13 18
-14 16 -14 -23z m-110 -141 c-12 -8 -11 -10 6 -10 11 0 26 6 33 13 11 10 11 8
2 -10 -9 -18 -20 -23 -51 -23 -21 0 -45 -3 -54 -6 -9 -3 -16 -1 -16 5 0 6 14
11 31 11 18 0 28 4 24 10 -4 6 -11 8 -16 5 -5 -4 -9 -2 -9 4 0 5 12 11 28 13
33 4 41 0 22 -12z m5 -50 c-3 -5 -17 -10 -31 -10 -13 0 -24 5 -24 10 0 6 14
10 31 10 17 0 28 -4 24 -10z m35 -20 c0 -5 -18 -10 -40 -10 -22 0 -40 -4 -40
-10 0 -5 13 -7 30 -3 19 3 30 1 30 -6 0 -6 -16 -11 -35 -11 -28 0 -35 4 -35
19 0 14 8 21 28 24 50 8 62 7 62 -3z m-36 -65 c-5 -11 -2 -13 10 -9 9 3 16 1
16 -5 0 -6 -16 -11 -35 -11 -19 0 -35 -3 -35 -8 0 -4 19 -6 41 -4 29 3 40 1
35 -7 -4 -6 -29 -11 -57 -11 -44 0 -49 2 -48 23 0 21 1 21 9 2 7 -17 9 -17 9
-2 1 10 10 18 24 18 l22 2 -22 4 c-33 6 -28 23 7 23 22 0 28 -4 24 -15z m-64
-80 c0 -8 7 -15 15 -15 8 0 15 5 15 11 0 5 -4 7 -10 4 -5 -3 -10 -1 -10 4 0 6
17 11 38 10 33 -1 34 -2 12 -9 l-25 -8 28 -1 c51 -2 27 -21 -26 -21 -46 0 -53
3 -53 20 0 11 4 20 8 20 4 0 8 -7 8 -15z m120 -35 c0 -5 -12 -11 -27 -11 -16
-1 -43 -3 -60 -5 -18 -2 -33 0 -33 6 0 5 21 11 48 13 26 2 53 4 60 5 6 1 12
-2 12 -8z m-73 -183 c0 -8 -13 -11 -39 -9 -45 5 -41 22 6 22 20 0 33 -5 33
-13z"/>
<path d="M824 3165 c2 -20 6 -38 10 -40 3 -3 4 -2 1 2 -3 3 1 16 9 28 15 22
10 38 -11 42 -8 2 -11 -9 -9 -32z"/>
<path d="M48 3161 c-20 -10 -39 -16 -42 -13 -4 3 -6 -6 -6 -20 l0 -25 50 25
c46 23 54 24 92 13 73 -22 109 -78 109 -168 0 -29 5 -53 10 -53 6 0 8 26 4 68
-3 37 -7 81 -8 99 -1 17 -6 29 -10 26 -5 -3 -23 9 -41 26 -20 20 -39 29 -48
26 -9 -4 -19 -2 -23 4 -9 16 -45 13 -87 -8z"/>
<path d="M422 3163 c-40 -19 -50 -38 -34 -64 7 -10 12 -25 12 -33 0 -14 74
-56 98 -56 15 0 28 27 35 72 4 28 1 43 -15 63 -11 14 -23 23 -28 20 -5 -3 -11
-1 -15 5 -8 13 -14 13 -53 -7z m78 -38 c9 -11 8 -18 -9 -36 -22 -24 -21 -39 2
-21 14 12 27 7 27 -9 0 -15 -40 -30 -55 -22 -14 8 -55 79 -55 95 0 14 77 8 90
-7z"/>
<path d="M933 3167 c-3 -4 20 -7 51 -6 31 1 53 5 50 8 -8 8 -95 7 -101 -2z"/>
<path d="M1263 3172 c-13 -2 -23 -8 -23 -14 0 -5 7 -7 16 -4 11 4 14 1 12 -11
-4 -22 -38 -30 -49 -11 -11 16 -12 -48 -3 -116 6 -41 10 -46 32 -46 19 0 22
-3 14 -13 -12 -14 -16 -14 166 9 34 4 52 3 52 -4 0 -11 -31 -17 -135 -28 -33
-3 -63 -11 -66 -16 -4 -6 -9 -5 -12 3 -3 8 -4 -12 -1 -43 4 -38 2 -58 -5 -58
-6 0 -12 19 -12 43 -1 23 -5 56 -9 72 -15 59 -10 -11 15 -221 14 -115 28 -235
32 -266 3 -32 10 -58 14 -58 5 0 9 4 9 9 0 5 39 10 88 10 80 0 370 26 378 33
1 2 -3 73 -11 158 -7 85 -19 232 -26 325 -6 94 -14 172 -16 175 -7 7 13 -389
23 -460 7 -52 10 -168 4 -173 -3 -3 -19 -8 -37 -11 -27 -6 -32 -4 -36 16 -4
23 -4 23 -6 1 -1 -17 -9 -24 -38 -30 -57 -11 -326 -8 -330 4 -2 6 21 11 54 12
32 1 60 6 61 11 2 6 20 10 40 11 21 0 73 6 117 14 64 10 71 13 38 14 -42 1
-42 1 -32 28 9 23 6 30 -21 55 -17 15 -35 28 -41 28 -5 0 -9 4 -9 8 0 5 42 14
93 21 50 6 96 16 100 20 4 4 -21 4 -55 -2 -35 -5 -70 -9 -78 -9 -26 1 -224
-18 -247 -24 -15 -3 -23 0 -23 10 0 10 21 16 78 21 120 12 123 12 192 20 36 4
80 7 98 6 21 -1 31 2 27 9 -3 5 -14 10 -24 10 -9 0 -21 4 -27 10 -5 5 -35 6
-79 0 -39 -5 -94 -11 -123 -13 -29 -3 -60 -11 -69 -18 -14 -12 -16 -12 -8 0 7
12 1 13 -33 7 -33 -5 -42 -3 -42 8 0 10 23 16 93 21 50 4 101 9 111 11 10 2
51 6 90 9 84 8 110 22 29 16 -49 -3 -54 -1 -42 12 8 8 19 12 24 9 6 -3 -1 7
-14 21 -20 22 -21 27 -8 27 9 0 18 4 21 8 4 6 -148 -9 -161 -17 -4 -2 -3 -2
-80 -7 -43 -3 -73 -1 -73 4 0 13 35 22 85 22 47 1 221 28 188 29 -24 1 -40 17
-22 23 5 2 7 11 3 22 -5 14 -15 17 -45 14 -22 -2 -39 0 -39 4 0 5 9 8 19 8 11
0 23 9 26 20 4 11 16 21 28 21 12 1 4 5 -18 8 -39 7 -38 7 25 14 111 13 170
28 170 41 0 7 -9 21 -20 31 -11 10 -20 24 -20 32 0 9 -16 13 -55 13 -30 0 -55
-4 -55 -10 0 -6 18 -7 45 -3 29 4 45 2 45 -5 0 -6 -31 -14 -70 -18 -39 -4 -73
-11 -76 -16 -4 -6 1 -8 12 -5 36 10 159 19 151 11 -9 -9 -12 -10 -132 -24 -49
-5 -130 -15 -180 -20 -103 -12 -133 -26 -35 -16 145 14 176 17 205 22 17 2 52
6 79 9 26 3 51 6 55 7 3 0 15 0 26 -1 37 -3 -6 -19 -65 -24 -30 -3 -124 -13
-208 -22 -84 -10 -155 -16 -158 -13 -3 3 -8 22 -11 43 l-6 37 52 -3 c28 -2 51
-1 51 2 0 4 6 6 13 6 16 -2 134 12 172 20 26 6 21 8 -35 18 -51 8 -64 14 -62
27 1 9 -3 20 -9 24 -8 5 -10 2 -6 -8 4 -12 -4 -17 -31 -22 -65 -10 -92 -7 -92
10 0 11 6 15 20 11 11 -3 22 -2 25 3 6 9 -31 17 -62 12z m38 -58 c10 8 99 15
99 7 0 -11 -28 -18 -112 -26 -48 -5 -68 -4 -68 4 0 6 14 11 31 11 21 0 28 4
23 13 -6 9 -5 9 8 0 8 -7 17 -11 19 -9z m219 -210 c0 -8 -11 -15 -27 -15 -16
-1 -37 -3 -48 -4 -109 -13 -175 -16 -175 -7 0 10 30 16 140 28 30 4 56 7 57 8
1 0 13 2 27 2 16 1 26 -3 26 -12z m-220 -115 c-15 -10 95 -7 218 7 35 4 52 3
52 -5 0 -6 -6 -11 -12 -12 -53 -2 -104 -14 -114 -27 -6 -8 -17 -12 -25 -9 -10
4 -9 6 4 6 9 1 17 5 17 9 0 5 -15 7 -32 5 -72 -8 -137 -10 -134 -4 1 3 6 14 9
24 4 9 12 17 19 17 9 0 9 -3 -2 -11z m210 -194 c0 -11 -12 -15 -42 -16 -61 -1
-151 -9 -165 -14 -7 -2 -13 2 -13 9 0 10 21 16 78 21 42 3 84 8 92 9 35 8 50
5 50 -9z m66 -37 c4 -5 -1 -8 -12 -8 -10 0 -50 -5 -89 -10 -116 -14 -178 -15
-183 -2 -3 9 17 12 70 13 40 1 86 4 103 8 40 8 102 8 111 -1z m-16 -48 c0 -5
-19 -11 -42 -12 -46 -1 -59 -2 -155 -14 -42 -4 -63 -3 -63 4 0 11 113 29 203
31 32 0 57 -3 57 -9z"/>
<path d="M834 3092 c-6 -4 -14 -14 -17 -22 -4 -12 -6 -12 -6 2 -1 11 -6 15
-16 12 -8 -4 -13 -10 -10 -14 3 -5 -1 -11 -7 -13 -7 -3 -1 -6 15 -6 15 -1 27
-7 27 -13 1 -7 7 1 15 17 7 17 14 24 14 17 1 -18 21 -5 21 14 0 15 -18 18 -36
6z"/>
<path d="M2485 3085 c-5 -2 -154 -20 -330 -40 -343 -38 -400 -46 -372 -52 9
-3 17 -11 17 -19 0 -17 -12 -18 -28 -2 -6 6 -14 9 -17 6 -4 -3 0 -12 8 -19 11
-10 12 -21 5 -44 -8 -27 -6 -81 7 -235 2 -25 7 -89 11 -142 3 -54 10 -98 15
-98 12 0 11 36 -6 235 -19 224 -19 225 4 225 22 0 31 -26 31 -97 0 -43 3 -51
18 -48 9 2 49 11 87 19 39 8 95 17 125 20 155 15 220 18 220 10 0 -5 45 -5
110 0 l110 9 0 29 0 28 -77 -5 c-43 -3 -96 -9 -118 -14 -39 -10 -126 -21 -195
-26 -19 -2 -64 -6 -100 -9 -123 -12 -160 -13 -165 -6 -8 13 22 19 34 7 13 -13
15 2 2 21 -13 22 35 64 68 60 25 -4 24 -4 -9 -14 -41 -12 -55 -44 -18 -43 13
0 17 3 11 6 -19 7 -16 23 5 23 19 0 42 18 42 32 0 4 -6 8 -14 8 -8 0 -17 6
-19 13 -4 10 -6 10 -6 0 -1 -7 -10 -13 -22 -13 -12 0 -23 -8 -26 -20 -4 -14
-14 -20 -34 -20 -31 0 -35 6 -19 30 6 10 10 11 10 3 0 -7 4 -13 8 -13 5 0 9 6
9 14 0 11 -10 13 -39 11 -21 -3 -38 0 -38 5 0 6 0 13 0 18 0 10 23 10 38 -1 7
-6 12 -6 12 0 0 10 129 34 143 26 4 -2 7 -12 7 -23 0 -13 5 -17 18 -13 11 2
18 13 18 26 -1 21 8 23 249 53 138 17 261 33 274 35 13 2 27 14 32 27 8 21 6
22 -39 21 -26 0 -51 -2 -57 -4z m-255 -65 c0 -5 -12 -10 -27 -10 -16 0 -52 -3
-80 -6 -35 -5 -53 -3 -53 4 0 6 21 12 48 14 26 2 62 4 80 6 17 1 32 -2 32 -8z
m-210 -18 c0 -10 -7 -19 -15 -19 -8 0 -15 9 -15 19 0 10 7 18 15 18 8 0 15 -8
15 -18z m-40 -12 c0 -7 -95 -20 -146 -20 -52 0 -20 18 49 26 72 10 97 8 97 -6z"/>
<path d="M84 3058 c-23 -27 -49 -74 -64 -114 l-10 -29 20 25 c11 14 20 30 20
36 0 5 16 27 34 48 29 31 41 37 68 34 43 -4 51 -36 25 -103 -29 -76 -30 -77
-66 -89 -19 -6 -37 -21 -42 -33 -7 -20 -6 -21 20 -12 34 12 91 66 91 86 0 7 7
25 16 39 21 31 13 103 -12 121 -28 21 -78 16 -100 -9z"/>
<path d="M1333 3057 c-46 -5 -83 -13 -83 -17 0 -3 30 -3 68 2 37 4 87 11 112
14 24 3 47 7 49 10 6 6 -51 3 -146 -9z"/>
<path d="M1900 3039 c-23 -5 -10 -5 35 -2 39 3 72 7 74 9 7 7 -72 2 -109 -7z"/>
<path d="M2603 2770 c2 -280 2 -285 -18 -282 -35 7 -46 49 -11 46 9 -1 16 6
16 16 0 14 -5 17 -22 12 -18 -4 -20 -2 -16 16 4 12 2 22 -3 22 -6 0 -9 -25 -7
-57 3 -57 3 -58 -27 -64 -16 -4 -50 -7 -74 -8 -41 -1 -43 -2 -38 -27 6 -31
-14 -41 -48 -26 -13 6 -27 7 -30 3 -5 -10 -139 -26 -330 -41 -71 -6 -164 -13
-205 -16 -46 -3 -70 -2 -62 3 7 5 36 11 64 12 28 1 59 6 69 12 10 5 22 8 26 7
8 -2 121 11 158 18 11 2 71 6 134 9 62 3 117 8 122 11 5 3 13 3 18 -1 5 -3 12
-1 16 4 3 6 13 7 23 4 13 -4 14 -3 6 6 -8 9 -64 7 -240 -8 -126 -12 -287 -25
-359 -31 -71 -6 -227 -19 -345 -30 -118 -11 -235 -20 -259 -20 -42 0 -43 -1
-28 -18 25 -27 3 -42 -60 -42 -46 0 -53 3 -53 19 0 16 9 21 43 24 23 3 -3 2
-58 -1 -55 -2 -134 -8 -175 -11 l-75 -7 60 -14 c52 -12 90 -29 170 -73 11 -6
42 -11 69 -12 39 0 51 -4 64 -22 10 -16 24 -23 46 -23 18 0 36 -4 41 -9 6 -5
34 -5 68 2 50 9 62 8 88 -7 21 -13 41 -16 72 -11 57 8 323 -20 369 -39 21 -9
46 -16 56 -16 11 0 30 -8 43 -18 29 -23 67 -33 75 -21 9 15 64 10 70 -6 4 -10
13 -13 24 -10 22 7 90 -20 90 -35 0 -7 8 -9 21 -5 16 5 20 3 16 -6 -2 -8 -10
-13 -16 -12 -6 2 -11 -8 -11 -21 0 -19 5 -23 28 -22 22 1 28 6 30 29 3 23 8
27 34 27 44 0 27 11 -21 15 -40 2 -71 19 -71 37 0 5 5 6 10 3 6 -3 10 -1 10 4
0 6 -11 11 -25 11 -14 0 -25 5 -25 11 0 6 -9 9 -20 6 -11 -3 -20 -1 -20 4 0 5
17 8 38 8 20 0 84 0 142 0 107 1 121 0 245 -17 39 -6 79 -10 90 -9 11 0 44 0
73 -1 50 -2 52 -3 52 -31 l0 -28 -67 1 c-38 1 -75 -1 -83 -4 -24 -8 -31 -39
-18 -84 l12 -41 4 33 c2 17 7 32 13 32 5 0 9 7 9 16 0 14 -3 14 -15 4 -12 -10
-15 -10 -15 3 0 19 42 29 113 29 44 -1 55 -5 72 -26 12 -15 24 -26 29 -26 15
0 38 -31 39 -53 0 -12 -3 -62 -7 -112 -5 -68 -4 -87 5 -78 6 6 14 41 16 77 3
36 9 66 14 66 4 0 5 -35 2 -77 -3 -43 -2 -75 2 -70 9 8 15 47 19 137 2 30 4
67 5 82 1 22 5 26 22 23 26 -5 35 -13 25 -22 -4 -4 -11 -1 -16 7 -8 12 -10 12
-10 -4 0 -15 5 -17 29 -13 38 8 40 1 39 -143 -1 -63 2 -125 6 -138 7 -21 5
-23 -31 -22 -21 1 -56 -1 -79 -5 -27 -4 -53 -1 -78 9 -22 9 -49 13 -68 9 -21
-4 -29 -3 -24 5 3 6 9 30 12 54 2 24 7 54 9 68 2 14 6 39 8 55 2 17 7 53 11
80 3 28 3 42 -2 32 -6 -16 -10 -16 -19 -5 -5 7 -13 26 -17 41 -4 15 -11 25
-16 22 -11 -7 8 -65 21 -65 5 0 9 -11 9 -25 0 -14 -4 -25 -10 -25 -5 0 -10 11
-10 24 0 35 -23 54 -59 48 -17 -2 -31 -7 -31 -9 0 -3 13 -3 29 -1 23 3 31 0
35 -16 3 -11 1 -25 -4 -31 -5 -6 -7 -29 -3 -50 l6 -38 -47 5 c-46 6 -48 5 -43
-18 4 -21 0 -24 -23 -24 -27 0 -28 0 -15 38 21 62 25 69 20 32 -5 -31 -4 -32
5 -11 13 30 -6 135 -22 125 -5 -3 -7 -17 -4 -30 4 -15 2 -24 -5 -24 -8 0 -9
-13 -5 -40 l6 -40 -44 0 c-31 0 -46 -5 -50 -16 -8 -21 -26 -8 -26 19 0 16 3
19 9 8 6 -10 11 -2 15 26 11 61 32 115 50 129 10 7 13 15 7 18 -5 4 -14 -2
-20 -11 -9 -17 -10 -17 -16 0 -14 34 -28 18 -21 -25 5 -34 4 -39 -5 -24 -16
26 -30 1 -18 -32 5 -14 7 -27 4 -30 -3 -3 -5 0 -5 6 0 7 -5 12 -11 12 -8 0 -9
-14 -5 -44 7 -43 7 -43 -21 -39 -73 11 -73 11 -62 40 6 15 15 30 20 34 6 4 6
15 -1 33 -13 35 -13 46 1 46 6 0 8 -7 5 -16 -4 -10 -1 -14 6 -11 7 2 14 10 14
18 1 8 2 20 3 27 0 7 6 10 11 7 6 -3 10 -1 10 5 0 8 -7 9 -17 5 -37 -15 -53
-17 -53 -6 0 6 -5 11 -11 11 -8 0 -9 -15 -5 -47 6 -44 5 -46 -7 -24 -17 29
-30 13 -21 -26 4 -19 3 -24 -4 -14 -15 20 -25 -4 -17 -42 5 -27 4 -29 -6 -13
-9 15 -13 16 -20 5 -4 -8 -6 -25 -3 -39 4 -17 3 -21 -4 -12 -17 24 -30 -9 -19
-48 l10 -35 38 83 c36 77 59 103 59 66 0 -9 -15 -46 -34 -83 -19 -36 -44 -90
-57 -119 l-22 -53 -116 7 c-64 3 -120 7 -125 8 -5 0 -10 -4 -12 -9 -2 -6 4
-12 13 -13 10 -1 54 -5 99 -9 45 -5 87 -13 95 -20 22 -18 202 -39 404 -47 187
-8 350 -18 392 -26 44 -8 53 -5 53 15 0 13 -42 17 -430 40 -353 21 -422 27
-413 35 4 4 143 -1 308 -11 423 -25 550 -30 495 -19 -25 5 -98 12 -163 16
-113 6 -118 7 -115 28 2 16 11 22 37 24 42 4 81 -5 81 -19 0 -6 -4 -7 -10 -4
-5 3 -10 1 -10 -6 0 -8 11 -10 35 -6 19 3 37 1 40 -4 11 -17 44 -9 50 12 6 19
12 21 51 15 l43 -6 -3 166 c-2 90 -5 166 -7 167 -2 2 -17 9 -34 17 l-30 15 38
3 c23 2 37 8 37 17 0 14 -23 13 -103 -5 -42 -9 -96 2 -109 22 -4 7 -8 33 -8
58 0 98 -41 166 -139 233 -67 45 -77 69 -26 59 17 -3 25 0 25 10 0 12 -10 13
-57 7 -67 -9 -132 -16 -258 -24 -85 -6 -337 -29 -613 -56 -68 -7 -117 -16
-110 -20 17 -9 118 -7 118 2 0 4 14 7 30 7 17 -1 30 -5 30 -11 0 -5 7 -4 15 3
13 11 15 10 9 -6 -5 -18 -5 -18 9 -2 8 10 35 21 61 24 44 6 46 6 46 -19 0 -17
-11 -34 -32 -51 -29 -22 -30 -25 -9 -19 13 3 37 25 53 48 40 57 69 62 170 30
100 -32 149 -31 238 1 38 14 74 23 78 20 4 -2 38 2 75 10 76 16 80 15 161 -44
43 -31 106 -111 106 -134 0 -4 -72 -8 -160 -8 -146 0 -160 2 -160 18 0 11 -3
13 -8 5 -5 -8 -42 -11 -112 -11 -58 1 -163 -2 -235 -5 -174 -9 -245 8 -245 59
0 24 -16 41 -28 29 -3 -3 0 -10 8 -15 25 -15 1 -24 -57 -22 -32 1 -67 9 -81
18 -13 9 -22 12 -18 6 7 -12 -21 -25 -36 -16 -14 9 -86 18 -156 18 -37 1 -61
5 -58 11 2 5 8 9 14 8 19 -4 46 37 46 72 l1 34 65 6 c36 3 83 8 105 10 161 17
544 51 730 65 262 19 256 18 250 48 -3 15 -6 131 -6 257 0 127 -4 257 -9 290
-6 40 -8 -33 -7 -225z m-23 -315 c0 -22 -4 -25 -40 -25 -22 0 -40 5 -40 10 0
6 5 10 11 10 5 0 8 4 4 9 -3 5 7 12 22 14 16 2 31 5 36 6 4 0 7 -10 7 -24z
m-100 -8 c0 -9 -12 -14 -30 -15 -20 0 -30 4 -30 14 0 9 11 14 30 14 18 0 30
-5 30 -13z m-846 -79 c-9 -31 -12 -34 -25 -21 -15 15 -4 43 16 43 12 0 15 -6
9 -22z m56 9 c0 -8 -3 -17 -7 -20 -9 -9 -34 13 -27 24 8 14 34 11 34 -4z
m-172 -20 c2 -10 -3 -17 -12 -17 -18 0 -29 16 -21 31 9 14 29 6 33 -14z m60 6
c-2 -10 -10 -18 -18 -18 -8 0 -16 8 -18 18 -2 12 3 17 18 17 15 0 20 -5 18
-17z m-116 -29 c4 -32 1 -37 -31 -53 -20 -10 -42 -16 -48 -14 -7 3 -13 0 -13
-6 0 -18 52 -13 66 6 7 10 15 15 18 12 4 -3 -1 -15 -11 -27 -14 -15 -34 -21
-80 -25 -35 -3 -60 -1 -57 4 3 5 14 9 24 9 19 0 32 35 27 74 -1 14 7 23 28 29
17 5 37 13 45 18 25 13 28 11 32 -27z m-133 -13 c24 -21 20 -46 -10 -61 -30
-17 -56 -11 -73 14 -15 24 -14 26 11 45 32 26 44 26 72 2z m-321 -8 c-2 -10
-10 -18 -18 -18 -8 0 -16 8 -18 18 -2 12 3 17 18 17 15 0 20 -5 18 -17z m204
-17 c-2 -19 1 -43 7 -53 10 -17 10 -17 11 0 0 9 5 17 10 17 6 0 10 -5 10 -10
0 -6 10 -15 23 -20 16 -6 5 -9 -45 -9 -57 -1 -69 2 -78 19 -6 10 -16 17 -23
15 -6 -3 -25 -1 -42 4 l-30 9 30 3 c17 1 36 2 43 2 6 -1 12 5 12 12 0 21 29
45 54 45 19 0 21 -4 18 -34z m1158 4 c0 -9 -76 -35 -124 -43 -32 -5 -146 19
-160 33 -7 7 17 10 64 11 41 1 100 4 130 8 58 7 90 4 90 -9z m506 -382 c-3
-13 -6 -32 -7 -43 0 -20 0 -20 -9 0 -15 34 -12 65 6 65 12 0 15 -6 10 -22z
m-166 -80 c-1 -49 -14 -88 -31 -88 -16 0 -17 2 -3 28 7 15 14 37 14 50 0 12 5
22 10 22 6 0 10 -6 10 -12z m-311 -68 c19 -5 39 -6 45 -2 6 5 24 9 40 10 21 2
26 -1 19 -11 -12 -15 4 -80 17 -72 12 8 12 8 0 -34 -7 -26 -6 -37 5 -48 9 -8
13 -18 11 -22 -3 -4 20 -7 49 -7 52 -1 54 0 60 27 4 17 11 26 17 23 7 -5 8 -2
2 7 -17 28 -14 52 12 76 l27 25 -7 -34 c-3 -18 -14 -59 -23 -91 l-17 -59 -51
6 c-27 3 -99 8 -160 11 -60 3 -138 8 -172 11 -58 5 -62 7 -53 25 13 22 35 26
26 4 -4 -12 1 -15 22 -14 15 1 36 -2 46 -6 13 -6 17 -5 12 3 -3 6 -1 14 5 18
8 4 9 3 5 -4 -4 -7 -2 -12 3 -12 6 0 11 9 11 19 0 11 5 23 12 27 7 4 8 3 4 -4
-4 -7 -2 -12 3 -12 6 0 11 9 11 19 0 11 2 25 3 33 2 7 2 10 0 5 -8 -13 -23 4
-22 26 0 12 3 17 6 10 3 -10 9 -10 24 0 31 19 23 37 -17 37 -21 0 -33 4 -29
10 8 12 12 12 54 0z m-66 -40 c15 0 17 -3 9 -13 -7 -8 -9 -29 -5 -51 l6 -37
-44 3 c-53 4 -59 25 -14 48 28 14 29 15 8 18 -22 3 -33 22 -13 22 6 0 10 8 10
17 0 13 3 14 12 5 7 -7 21 -12 31 -12z m298 -24 c-7 -8 -7 -24 -1 -47 6 -18
10 -36 10 -39 0 -3 -24 -3 -52 0 l-53 5 -1 45 c0 25 3 47 7 50 4 3 28 4 54 2
35 -3 43 -7 36 -16z"/>
<path d="M1279 2318 c-8 -26 -3 -48 12 -48 24 0 33 18 19 35 -11 13 -28 20
-31 13z"/>
<path d="M2476 1712 c-3 -5 0 -25 6 -45 8 -27 8 -42 0 -59 -10 -19 -11 -19 -7
-3 4 18 0 20 -41 21 -33 1 -44 -3 -40 -12 3 -7 0 -15 -7 -18 -7 -4 3 -4 22 -1
19 3 40 0 47 -6 21 -17 40 4 48 52 6 39 -14 93 -28 71z"/>
<path d="M969 3021 c-8 -2 -36 -21 -63 -42 -37 -30 -45 -40 -32 -45 9 -3 13
-10 10 -15 -13 -21 11 -6 51 34 24 23 54 49 66 57 21 15 21 16 1 16 -11 0 -26
-2 -33 -5z"/>
<path d="M885 3010 c-4 -6 -11 -7 -17 -4 -7 4 -8 2 -4 -4 4 -7 2 -12 -3 -12
-6 0 -11 5 -11 10 0 6 -3 10 -7 10 -5 0 -8 -11 -8 -25 0 -14 3 -25 7 -25 13 0
74 59 61 60 -6 0 -15 -5 -18 -10z"/>
<path d="M2443 3013 c-7 -3 -13 -11 -13 -19 0 -19 -28 -18 -32 2 -3 13 -6 13
-27 -5 l-24 -21 39 1 c58 1 82 11 75 30 -3 9 -12 14 -18 12z"/>
<path d="M2497 3000 c-4 -17 -2 -20 14 -15 18 6 19 0 19 -110 0 -116 9 -155
34 -155 19 0 26 23 25 78 0 39 -16 106 -18 78 -1 -5 -8 -3 -16 4 -15 13 -11
35 6 25 15 -10 10 7 -8 28 -17 18 -17 20 2 34 14 11 16 17 7 20 -7 3 -19 11
-26 19 -20 20 -33 17 -39 -6z m83 -170 c0 -21 -24 -28 -35 -10 -8 14 3 30 21
30 8 0 14 -9 14 -20z m0 -60 c0 -19 -20 -27 -33 -13 -8 7 11 33 24 33 5 0 9
-9 9 -20z"/>
<path d="M2307 2993 c-14 -13 -6 -33 13 -33 13 0 20 7 20 20 0 19 -20 27 -33
13z"/>
<path d="M2200 2983 c-8 -4 -21 -13 -27 -22 -12 -15 -14 -14 -27 2 -16 21 -26
22 -26 3 0 -8 -6 -17 -12 -19 -18 -8 52 -6 82 2 14 3 26 14 28 24 2 9 2 17 0
16 -2 0 -10 -3 -18 -6z"/>
<path d="M2234 2974 c3 -9 6 -17 6 -19 0 -2 9 -1 19 2 25 6 16 33 -11 33 -14
0 -18 -5 -14 -16z"/>
<path d="M2044 2950 c0 -11 3 -20 7 -20 19 0 39 14 39 26 0 20 -18 17 -23 -3
-4 -17 -5 -17 -6 0 -1 24 -17 22 -17 -3z"/>
<path d="M2407 2941 c-6 -23 -13 -25 -241 -46 -160 -16 -226 -28 -213 -41 5
-5 259 18 341 31 11 2 67 9 124 15 106 13 144 35 49 28 -47 -3 -53 -1 -49 15
2 9 2 17 -1 17 -2 0 -7 -9 -10 -19z"/>
<path d="M557 2901 c44 -40 148 -79 179 -67 23 9 11 19 -28 23 -18 2 -39 11
-47 21 -12 15 -13 16 -8 0 5 -14 2 -15 -14 -9 -11 4 -19 10 -17 13 3 7 -87 58
-100 58 -4 -1 12 -18 35 -39z"/>
<path d="M670 2920 c8 -5 21 -10 29 -10 8 0 23 -7 33 -17 19 -17 85 -20 100
-5 13 13 -38 30 -112 36 -44 4 -60 3 -50 -4z"/>
<path d="M455 2818 c-7 -18 2 -168 11 -197 5 -17 4 -22 -4 -17 -8 5 -12 -1
-12 -18 0 -14 -5 -28 -12 -32 -10 -7 72 -53 96 -54 6 0 20 -10 33 -22 13 -12
23 -17 23 -12 0 9 -55 50 -94 69 -19 10 -21 19 -20 93 1 45 -3 79 -7 76 -5 -3
-9 0 -9 5 0 6 4 11 9 11 5 0 5 20 0 46 -5 25 -6 50 -3 55 3 5 3 9 -1 9 -3 0
-8 -6 -10 -12z"/>
<path d="M780 2808 c0 -5 -10 -8 -22 -8 -13 0 -30 -5 -38 -11 -11 -8 -6 -9 22
-6 l36 5 10 -61 c6 -34 21 -129 32 -212 12 -82 25 -153 29 -156 3 -3 92 2 196
12 105 10 200 18 213 18 12 1 22 6 22 12 0 8 -24 9 -77 4 -43 -3 -107 -8 -142
-10 -35 -2 -86 -7 -115 -10 -28 -3 -57 -2 -63 3 -13 8 -39 129 -48 223 -2 30
-9 79 -15 109 -12 61 -7 87 18 93 9 3 0 4 -20 3 -21 0 -38 -4 -38 -8z"/>
<path d="M686 2795 c-3 -8 -12 -15 -20 -15 -15 0 -18 -16 -16 -107 0 -18 11
-66 25 -107 19 -56 24 -86 19 -116 -7 -45 -18 -49 -54 -20 -50 39 -44 19 9
-30 30 -28 55 -49 57 -47 2 2 8 24 13 50 9 52 2 113 -28 219 -12 41 -21 84
-21 97 l0 22 26 -20 c15 -12 32 -21 38 -21 6 0 -2 11 -19 24 -28 22 -29 26
-18 55 6 17 8 31 3 31 -4 0 -10 -7 -14 -15z"/>
<path d="M131 2761 c-15 -27 -14 -51 2 -51 25 -1 59 -37 66 -71 5 -24 9 -29
13 -18 4 10 -4 37 -18 62 -13 26 -24 52 -24 60 0 8 -6 20 -14 26 -12 10 -17 8
-25 -8z"/>
<path d="M1978 2773 c-16 -2 -28 -8 -28 -13 0 -4 17 -4 38 0 20 5 51 10 67 13
23 3 21 4 -10 4 -22 0 -52 -2 -67 -4z"/>
<path d="M1883 2743 c9 -2 17 -9 17 -14 0 -14 -48 -11 -53 4 -3 6 -6 2 -6 -10
-1 -13 4 -22 10 -20 6 1 14 -4 17 -12 3 -10 0 -12 -12 -8 -13 5 -16 -1 -16
-33 l0 -40 45 7 c33 4 45 2 45 -7 0 -8 8 -4 19 9 17 20 20 20 35 6 9 -9 16
-12 16 -6 0 5 26 12 58 16 31 3 71 8 87 10 17 2 63 7 103 11 39 3 72 11 72 16
0 17 44 27 53 11 6 -10 23 -13 58 -11 27 2 49 6 49 9 0 4 6 9 14 12 9 4 12 0
9 -13 -3 -10 -15 -21 -26 -24 -36 -9 -97 -7 -97 4 0 7 -6 7 -19 1 -10 -6 -21
-8 -24 -4 -4 3 -12 1 -19 -5 -7 -5 -53 -13 -103 -17 -49 -4 -103 -9 -120 -10
-16 -2 -40 -4 -53 -4 -14 -1 -21 -5 -16 -12 5 -8 -6 -10 -34 -7 -22 2 -38 -1
-35 -6 3 -5 -18 -7 -51 -4 l-56 5 0 -37 c0 -64 12 -130 24 -130 8 0 10 22 8
65 -2 48 0 65 10 66 15 1 31 5 38 8 3 2 22 4 42 6 21 1 45 8 53 15 20 16 477
66 497 54 4 -3 8 18 8 45 0 44 -3 51 -20 51 -11 0 -20 -6 -20 -12 0 -9 -4 -8
-10 2 -8 13 -10 12 -10 -2 0 -10 -6 -18 -14 -18 -7 0 -28 -3 -46 -7 -27 -5
-32 -3 -28 8 4 11 -3 13 -33 11 -21 -2 -37 -8 -34 -12 8 -13 -88 -19 -100 -6
-7 8 -22 10 -45 5 l-35 -8 38 3 c20 1 37 -1 37 -5 0 -6 -76 -19 -114 -19 -17
0 -18 2 -6 10 13 8 13 10 -1 10 -9 0 -19 -7 -23 -15 -6 -17 -36 -21 -36 -5 0
6 -13 10 -30 10 -20 0 -30 5 -30 15 0 8 5 15 10 15 6 0 10 4 10 9 0 4 -18 6
-40 4 -25 -3 -40 -1 -40 6 0 6 -10 10 -22 10 -17 -1 -19 -2 -5 -6z m77 -37 c0
-7 -11 -16 -25 -18 -19 -4 -25 -1 -25 13 0 14 7 19 25 19 15 0 25 -6 25 -14z
m-10 -38 c0 7 14 12 38 11 l37 -2 -35 -7 c-31 -6 -32 -8 -8 -9 31 -1 45 -16
23 -25 -8 -3 -15 -1 -15 4 0 5 -12 6 -27 3 -57 -11 -93 -7 -93 11 0 17 61 26
72 11 5 -6 8 -5 8 3z"/>
<path d="M2047 2723 c-9 -2 -15 -8 -13 -11 6 -10 96 -2 96 9 0 9 -51 10 -83 2z"/>
<path d="M397 2698 c-4 -12 -4 -33 -1 -45 4 -14 2 -23 -5 -23 -6 0 -11 -11
-11 -23 0 -43 -31 -66 -91 -69 -32 -2 -59 -9 -65 -17 -7 -9 -32 -15 -65 -17
-30 -1 -67 -7 -84 -13 -16 -7 -40 -10 -52 -6 -20 5 -23 1 -23 -21 0 -17 4 -24
13 -21 6 2 39 10 72 17 170 35 254 55 289 71 38 17 39 17 43 84 3 48 1 65 -7
60 -7 -5 -9 1 -4 19 3 14 4 26 1 26 -2 0 -7 -10 -10 -22z"/>
<path d="M2968 2685 c-6 -29 2 -38 21 -25 11 6 11 12 -1 29 l-16 22 -4 -26z"/>
<path d="M2520 2561 c0 -57 -1 -60 -27 -64 -26 -4 -26 -4 5 -6 l32 -1 0 65 c0
36 -2 65 -5 65 -3 0 -5 -27 -5 -59z"/>
<path d="M2737 2572 c-9 -2 -15 -8 -12 -13 4 -5 -1 -9 -9 -9 -17 0 -22 -35 -7
-44 5 -3 8 2 7 11 -1 13 9 18 37 20 22 2 36 -1 33 -6 -9 -14 22 -21 48 -11 14
5 48 10 78 11 69 2 88 7 88 25 0 12 -17 13 -110 8 -66 -4 -114 -3 -122 3 -7 5
-21 8 -31 5z"/>
<path d="M2719 2493 c-22 -12 -19 -13 31 -12 30 1 93 4 140 8 l85 7 -116 5
c-80 3 -123 0 -140 -8z"/>
<path d="M2882 2448 c-7 -7 -12 -8 -12 -4 0 4 -14 -4 -31 -18 -24 -21 -41 -26
-84 -26 -29 0 -60 -3 -68 -6 -8 -3 -22 2 -31 11 -9 9 -16 14 -16 12 0 -3 -3
-12 -6 -21 -5 -14 7 -16 98 -16 l105 0 -11 -34 c-6 -19 -19 -37 -28 -39 -25
-7 -34 -37 -29 -98 4 -67 19 -45 22 34 2 52 4 55 22 45 11 -6 42 -8 69 -5 38
5 48 3 48 -8 0 -16 12 -18 48 -9 23 7 31 33 10 35 -7 1 -40 2 -73 3 l-60 1 -3
51 c-3 46 -1 51 23 62 20 9 37 10 67 2 38 -11 39 -13 37 -48 -2 -48 -1 -62 9
-62 4 0 8 27 9 59 l2 59 -49 16 c-58 19 -53 19 -68 4z"/>
<path d="M543 2420 c-37 -22 -51 -45 -56 -91 -2 -19 -10 -45 -17 -59 -17 -31
-24 -74 -11 -66 5 4 13 21 16 39 4 17 20 53 36 80 16 26 29 50 29 54 0 4 10
17 22 30 29 31 20 37 -19 13z"/>
<path d="M241 2357 c-43 -52 -55 -206 -26 -341 24 -114 117 -358 131 -344 2 3
-6 24 -18 49 -25 52 -70 195 -92 292 -26 114 -17 301 17 345 13 16 2 16 -12
-1z"/>
<path d="M2955 2190 c-3 -5 -19 -10 -36 -10 -26 0 -29 -3 -29 -30 0 -25 4 -30
23 -29 20 0 20 1 3 8 -18 7 -18 8 -3 14 10 4 30 4 46 1 21 -4 30 -2 35 11 5
13 2 16 -11 10 -27 -10 -83 -14 -83 -5 0 7 29 14 88 22 6 1 12 5 12 10 0 11
-38 10 -45 -2z"/>
<path d="M443 2170 c3 -13 0 -20 -9 -20 -24 0 -15 -19 11 -26 35 -9 39 -1 20
35 -18 35 -30 41 -22 11z"/>
<path d="M2598 2163 c23 -2 59 -2 80 0 20 2 1 4 -43 4 -44 0 -61 -2 -37 -4z"/>
<path d="M610 2134 c0 -12 8 -32 18 -43 l17 -22 30 30 c21 23 26 34 18 42 -8
8 -16 6 -29 -10 l-19 -21 -17 22 c-18 23 -18 23 -18 2z"/>
<path d="M504 2105 c1 -14 5 -28 8 -31 9 -8 20 34 13 46 -12 19 -24 10 -21
-15z"/>
<path d="M2805 2102 c-10 -11 8 -22 36 -22 39 0 38 25 -1 26 -16 1 -32 -1 -35
-4z"/>
<path d="M2928 2073 c-21 -2 -38 -8 -38 -13 0 -10 56 -2 80 11 8 5 11 8 5 7
-5 -1 -27 -3 -47 -5z"/>
<path d="M574 2054 c-11 -5 -7 -54 4 -54 3 0 13 7 23 16 15 14 16 18 4 30 -7
8 -15 14 -17 13 -2 0 -8 -3 -14 -5z"/>
<path d="M2202 2055 c9 -9 268 -55 309 -55 21 0 41 5 44 10 4 6 -7 10 -27 10
-18 0 -91 9 -162 20 -132 20 -173 24 -164 15z"/>
<path d="M470 2005 c0 -12 7 -15 25 -13 33 4 33 22 0 26 -18 2 -25 -1 -25 -13z"/>
<path d="M2055 1938 c-49 -50 -93 -78 -122 -78 -15 0 -34 -19 -66 -67 -48 -72
-91 -111 -118 -108 -9 2 -28 11 -43 20 -23 15 -25 20 -14 35 43 58 88 126 88
133 0 4 -6 5 -12 1 -7 -4 -5 2 5 13 19 22 23 38 5 27 -6 -4 -8 -3 -5 2 3 6 2
16 -4 24 -7 12 -9 10 -9 -7 0 -50 -56 -161 -116 -231 -31 -36 -34 -41 -34 -62
0 -5 -11 -10 -24 -10 -13 0 -43 -9 -67 -19 -24 -11 -80 -29 -124 -41 -44 -12
-120 -39 -170 -60 -49 -21 -119 -45 -155 -54 -204 -52 -204 -53 -215 -186 -4
-52 -7 -205 -6 -340 2 -253 -6 -324 -54 -500 -8 -30 -15 -70 -15 -90 0 -19
-12 -62 -26 -95 -15 -37 -27 -86 -29 -126 -2 -36 -9 -77 -14 -92 -8 -21 -8
-27 3 -27 18 0 33 46 42 125 3 33 15 80 25 105 10 25 25 83 33 129 18 99 25
110 61 87 55 -36 28 7 -29 47 -15 11 -17 17 -7 35 6 11 11 30 11 41 0 33 15
25 31 -16 29 -75 47 -109 48 -89 1 10 -13 48 -29 84 -26 53 -30 71 -24 108 3
24 11 44 18 44 6 0 27 -16 45 -35 19 -19 56 -52 82 -72 26 -21 50 -47 54 -58
4 -13 8 -16 12 -7 4 10 8 10 19 1 17 -14 19 -33 2 -23 -7 4 -8 3 -4 -5 4 -6
11 -9 16 -6 4 3 13 -9 19 -25 5 -17 12 -30 15 -30 3 0 1 12 -4 26 -18 45 -11
49 22 14 18 -19 31 -41 30 -47 -2 -7 1 -13 7 -13 5 0 23 -14 40 -31 32 -32 38
-31 21 2 -17 30 2 23 33 -13 26 -31 28 -31 21 -8 -4 14 -16 38 -27 54 -18 25
-22 27 -31 14 -8 -14 -16 -10 -49 28 -21 24 -92 87 -157 139 -120 97 -200 178
-200 205 0 8 28 -13 63 -46 77 -75 238 -207 244 -200 3 3 -4 17 -15 33 -19 28
-29 52 -37 92 -2 11 -8 29 -14 38 -8 15 -10 10 -11 -24 l0 -41 -30 26 c-16 15
-30 33 -31 42 -1 8 -4 4 -8 -10 -8 -24 -9 -23 -26 18 -9 23 -22 42 -29 41 -22
-4 -47 14 -62 43 -21 41 -21 118 0 134 15 10 14 12 -6 17 -23 6 -23 6 -21 183
2 218 2 218 119 252 43 12 89 24 101 26 12 3 30 9 41 15 12 6 34 11 51 11 16
0 36 6 43 14 26 25 97 56 145 63 27 3 75 16 108 29 33 13 86 30 118 39 31 9
57 20 57 25 0 5 6 7 13 4 8 -3 20 2 27 11 19 23 60 20 60 -5 0 -17 -7 -20 -50
-20 -57 0 -67 -15 -16 -24 46 -9 86 2 79 20 -8 21 20 17 34 -6 14 -21 70 -35
102 -25 37 11 12 25 -47 25 -56 1 -57 1 -29 16 15 8 27 22 27 31 0 12 3 13 15
3 8 -6 19 -9 25 -5 6 3 10 -3 10 -14 0 -12 6 -21 13 -22 6 0 23 -2 37 -4 28
-3 49 10 60 40 7 16 9 16 9 3 1 -9 11 -18 24 -20 12 -2 20 -7 18 -13 -4 -11
66 -26 85 -18 6 2 21 22 33 43 17 31 20 44 11 60 -21 39 -41 23 -30 -26 8 -34
-4 -50 -13 -16 -4 13 -5 11 -6 -5 -1 -27 -26 -30 -78 -11 -28 10 -33 16 -28
35 10 42 -54 87 -69 48 -3 -8 -15 -15 -27 -15 -16 0 -20 5 -16 20 4 17 2 18
-15 9 -19 -10 -19 -11 -1 -24 22 -18 45 -19 61 -3 15 15 22 8 28 -34 6 -34 6
-34 -34 -36 -25 -2 -43 3 -52 13 -7 8 -19 15 -27 15 -11 0 -12 9 -8 38 11 64
9 62 90 62 43 0 75 4 75 10 0 6 -13 10 -29 10 -25 0 -29 4 -28 23 1 12 15 36
31 52 16 17 27 23 23 13 -4 -12 -2 -15 9 -11 7 3 14 13 14 23 0 10 13 28 30
41 34 27 38 39 13 38 -10 0 -36 -19 -58 -41z m-85 -114 c0 -8 -4 -13 -9 -10
-5 4 -11 1 -13 -5 -2 -6 -15 -9 -28 -7 -24 4 -24 5 10 21 43 20 40 20 40 1z
m-121 -142 c0 -20 -3 -32 -5 -26 -2 6 -19 9 -37 7 -30 -4 -31 -3 -13 11 11 9
23 16 28 16 4 0 8 9 8 21 0 11 5 17 10 14 6 -3 10 -23 9 -43z"/>
<path d="M2120 1885 c-9 -10 -16 -12 -25 -5 -14 12 -25 3 -25 -22 0 -11 7 -18
20 -18 11 0 20 7 20 15 0 11 11 15 36 15 24 0 34 4 32 13 -7 18 -43 20 -58 2z"/>
<path d="M1182 1868 c-7 -7 -12 -17 -12 -24 0 -6 -7 -15 -16 -18 -8 -3 -13
-10 -10 -15 3 -5 -1 -14 -9 -21 -8 -7 -15 -8 -15 -3 0 5 -19 -9 -43 -31 -24
-23 -39 -44 -34 -47 6 -4 0 -17 -12 -30 -21 -23 -27 -39 -13 -39 16 0 30 17
41 50 10 30 36 56 86 88 16 10 67 102 57 102 -4 0 -13 -5 -20 -12z"/>
<path d="M2006 1841 c-7 -11 17 -21 52 -21 15 0 22 4 17 9 -15 13 -63 22 -69
12z"/>
<path d="M1814 1795 c-10 -14 -21 -20 -24 -14 -4 6 -16 1 -31 -11 -22 -19 -22
-20 -2 -11 28 14 36 14 27 -1 -4 -6 4 -3 18 8 29 21 53 54 39 54 -4 0 -17 -11
-27 -25z"/>
<path d="M2065 1780 c-4 -6 11 -10 39 -10 25 0 48 5 51 10 4 6 -11 10 -39 10
-25 0 -48 -4 -51 -10z"/>
<path d="M65 1770 c-9 -15 4 -50 20 -50 18 0 24 21 13 43 -10 19 -24 22 -33 7z"/>
<path d="M2 1703 c4 -23 54 -41 69 -26 8 8 3 16 -19 27 -40 21 -54 20 -50 -1z"/>
<path d="M240 1640 c0 -11 42 -30 66 -30 25 0 15 16 -19 28 -41 15 -47 15 -47
2z"/>
<path d="M0 1560 c0 -16 2 -30 4 -30 2 0 9 14 15 30 8 24 7 30 -5 30 -9 0 -14
-10 -14 -30z"/>
<path d="M1570 1446 c9 -8 562 -64 900 -90 79 -7 224 -20 377 -36 114 -12 160
-13 148 -1 -6 5 -80 14 -165 20 -85 7 -171 14 -190 16 -19 2 -69 7 -110 10
-41 3 -120 10 -175 15 -55 5 -136 12 -180 15 -44 3 -114 10 -155 15 -41 5
-133 14 -205 20 -71 6 -157 14 -190 16 -33 3 -58 3 -55 0z"/>
<path d="M645 1365 c11 -8 25 -19 32 -25 7 -5 27 -10 45 -10 30 0 28 3 -27 25
-68 28 -78 30 -50 10z"/>
<path d="M778 1337 c-5 -10 -8 -33 -7 -50 0 -31 1 -31 10 -7 5 13 9 36 7 50
-3 21 -4 22 -10 7z"/>
<path d="M686 1196 c-20 -41 -41 -78 -46 -81 -6 -3 -10 -11 -10 -17 0 -21 42
27 62 72 11 25 27 57 34 73 8 15 10 27 6 27 -5 0 -26 -33 -46 -74z"/>
<path d="M734 1148 c-15 -57 -17 -75 -7 -66 7 6 11 13 9 16 -3 2 2 18 10 34 8
16 14 44 12 61 -2 26 -7 18 -24 -45z"/>
<path d="M173 1104 c-18 -8 -33 -19 -33 -24 0 -6 -9 -10 -19 -10 -11 0 -23 -4
-26 -10 -11 -17 21 -11 48 10 14 11 30 20 35 20 5 0 15 7 22 15 15 18 15 18
-27 -1z"/>
<path d="M706 1052 c-4 -7 -5 -12 -1 -12 3 0 -7 -24 -22 -52 -29 -58 -44 -115
-16 -63 9 17 21 33 27 37 6 4 12 12 12 18 1 5 2 15 3 21 0 5 5 8 10 5 5 -3 11
5 13 19 3 13 2 22 -3 20 -4 -3 -9 0 -11 7 -3 9 -6 9 -12 0z"/>
<path d="M777 975 c3 -33 7 -81 7 -107 1 -25 4 -41 8 -35 12 18 9 76 -7 142
l-15 60 7 -60z"/>
<path d="M2835 954 c-27 -8 -76 -24 -109 -34 -45 -15 -63 -17 -79 -8 -11 6
-57 10 -101 9 -161 -4 -217 -32 -328 -169 -9 -11 -18 -28 -20 -39 -5 -25 -12
-24 -223 22 -236 51 -266 56 -276 53 -6 -2 93 -26 220 -53 237 -50 265 -59
245 -72 -6 -5 -14 -28 -17 -52 -7 -58 -16 -65 -63 -52 -22 5 -50 12 -64 15
-14 3 -123 30 -242 60 -119 30 -231 57 -250 60 -18 3 -103 23 -188 45 -85 22
-185 42 -222 45 -38 3 -77 10 -87 16 -11 5 -32 10 -48 9 -38 -1 3 -12 397
-109 179 -44 423 -105 542 -135 119 -30 223 -55 231 -55 10 0 16 18 19 63 3
34 14 81 26 102 33 66 107 148 164 182 47 28 64 32 160 38 99 7 107 6 123 -13
l18 -20 34 20 c35 21 128 46 198 54 79 9 105 15 105 24 0 15 -108 10 -165 -6z"/>
<path d="M1001 936 c7 -7 161 -37 166 -33 2 3 -28 12 -68 21 -70 16 -107 20
-98 12z"/>
<path d="M1180 901 c0 -4 15 -11 33 -14 17 -3 86 -18 152 -32 157 -33 186 -38
160 -26 -12 5 -77 20 -145 35 -69 14 -141 30 -160 36 -42 12 -40 12 -40 1z"/>
<path d="M2605 843 c-29 -7 -62 -40 -104 -103 -36 -53 -45 -72 -71 -155 -27
-85 -119 -171 -197 -185 -42 -7 -44 -8 -13 -9 49 -1 101 26 159 82 42 41 54
61 76 130 27 85 109 213 143 223 9 3 26 9 37 14 22 9 4 11 -30 3z"/>
<path d="M2985 810 c-3 -5 -28 -21 -55 -36 -66 -36 -103 -84 -185 -239 -53
-101 -74 -125 -149 -169 -36 -21 -64 -41 -62 -43 9 -10 47 9 106 53 33 24 60
41 60 36 0 -4 23 38 51 93 76 147 129 218 194 257 30 18 55 38 55 45 0 15 -7
17 -15 3z"/>
<path d="M596 788 c-18 -25 -21 -53 -5 -43 12 8 32 56 25 62 -2 2 -11 -6 -20
-19z"/>
<path d="M762 735 c-13 -51 -16 -92 -4 -81 4 4 8 17 9 29 1 12 5 39 8 60 9 51
2 47 -13 -8z"/>
<path d="M1412 635 c0 -22 3 -49 8 -60 9 -20 9 -20 9 0 0 11 -4 38 -8 60 l-9
40 0 -40z"/>
<path d="M1170 652 c0 -14 39 -46 47 -39 3 4 -2 16 -12 27 -19 21 -35 26 -35
12z"/>
<path d="M1476 639 c-11 -54 -16 -159 -8 -159 5 0 12 39 14 88 5 88 3 114 -6
71z"/>
<path d="M722 607 c-19 -53 -14 -65 9 -23 11 22 17 42 12 47 -5 5 -14 -5 -21
-24z"/>
<path d="M1548 558 c-31 -34 -56 -63 -54 -65 6 -6 82 67 99 96 10 17 17 31 15
31 -2 0 -29 -28 -60 -62z"/>
<path d="M1283 545 c32 -32 60 -55 63 -52 6 6 -79 87 -105 100 -9 5 10 -17 42
-48z"/>
<path d="M1425 521 c-6 -19 3 -51 14 -51 4 0 5 16 3 35 -5 40 -8 43 -17 16z"/>
<path d="M2157 458 c-18 -51 -89 -187 -131 -250 -28 -42 -42 -55 -54 -50 -15
5 -15 4 -2 -12 13 -17 16 -16 42 13 15 17 28 28 28 24 0 -5 16 23 36 60 19 38
44 77 55 88 10 10 19 28 19 39 0 10 8 24 18 29 9 6 12 11 5 11 -14 0 -9 36 7
55 8 10 8 15 0 20 -7 4 -16 -7 -23 -27z"/>
<path d="M1290 475 c0 -11 104 -24 118 -15 15 8 15 9 -3 10 -11 1 -41 2 -67 4
-27 2 -48 2 -48 1z"/>
<path d="M1447 463 c-18 -5 -18 -11 -1 -104 3 -14 -3 -45 -12 -68 -22 -55 -11
-65 12 -11 13 29 22 39 34 34 8 -3 86 -31 173 -60 87 -30 168 -59 179 -65 29
-15 118 -37 118 -29 0 8 -30 20 -195 76 -60 21 -150 52 -200 69 l-90 32 0 67
c0 36 0 65 0 65 0 -1 -8 -3 -18 -6z"/>
<path d="M287 316 c-3 -7 -19 -20 -36 -27 -17 -8 -33 -20 -36 -27 -2 -7 16 1
40 18 25 17 45 35 45 40 0 14 -7 12 -13 -4z"/>
<path d="M2955 223 c-32 -62 -64 -136 -65 -150 0 -1 7 0 15 3 8 4 15 12 15 20
0 7 18 48 41 90 22 42 39 85 37 96 -2 11 -17 -10 -43 -59z"/>
<path d="M1398 172 c-10 -20 -16 -38 -14 -40 8 -7 38 47 34 61 -2 8 -11 -2
-20 -21z"/>
<path d="M30 157 c-14 -7 -26 -18 -28 -25 -2 -10 6 -8 28 4 16 10 30 22 30 26
0 9 2 10 -30 -5z"/>
<path d="M1930 120 c0 -5 5 -10 10 -10 6 0 10 -8 10 -17 1 -17 1 -17 11 0 5 9
7 22 4 27 -8 13 -35 13 -35 0z"/>
<path d="M1484 61 c11 -12 28 -21 40 -21 24 0 13 11 -29 29 -30 13 -30 13 -11
-8z"/>
<path d="M0 9 c0 -5 44 -9 97 -9 53 0 94 2 92 4 -10 9 -189 14 -189 5z"/>
</g>
</svg>
